<mxfile host="Electron" agent="Mozilla/5.0 (Windows NT 10.0; Win64; x64) AppleWebKit/537.36 (KHTML, like Gecko) draw.io/25.0.2 Chrome/128.0.6613.186 Electron/32.2.5 Safari/537.36" version="25.0.2">
  <diagram name="Page-1" id="yPceqjLNd-yV5GJrdt3N">
    <mxGraphModel dx="1014" dy="939" grid="1" gridSize="10" guides="1" tooltips="1" connect="1" arrows="1" fold="1" page="1" pageScale="1" pageWidth="827" pageHeight="1169" math="0" shadow="0">
      <root>
        <mxCell id="0" />
        <mxCell id="1" parent="0" />
        <mxCell id="IYdqFMrbhZFDWDfa6gce-204" value="" style="rounded=0;whiteSpace=wrap;html=1;" vertex="1" parent="1">
          <mxGeometry x="60" y="130" width="640" height="230" as="geometry" />
        </mxCell>
        <mxCell id="IYdqFMrbhZFDWDfa6gce-1" value="" style="rounded=0;whiteSpace=wrap;html=1;" vertex="1" parent="1">
          <mxGeometry x="80" y="260" width="80" height="80" as="geometry" />
        </mxCell>
        <mxCell id="IYdqFMrbhZFDWDfa6gce-2" value="FB (1920x1080)" style="rounded=0;whiteSpace=wrap;html=1;" vertex="1" parent="1">
          <mxGeometry x="80" y="230" width="160" height="20" as="geometry" />
        </mxCell>
        <mxCell id="IYdqFMrbhZFDWDfa6gce-3" value="" style="rounded=0;whiteSpace=wrap;html=1;fillColor=#0000FF;" vertex="1" parent="1">
          <mxGeometry x="80" y="250" width="10" height="10" as="geometry" />
        </mxCell>
        <mxCell id="IYdqFMrbhZFDWDfa6gce-22" value="" style="rounded=0;whiteSpace=wrap;html=1;fillColor=#0000FF;" vertex="1" parent="1">
          <mxGeometry x="90" y="250" width="10" height="10" as="geometry" />
        </mxCell>
        <mxCell id="IYdqFMrbhZFDWDfa6gce-23" value="" style="rounded=0;whiteSpace=wrap;html=1;fillColor=#0000FF;" vertex="1" parent="1">
          <mxGeometry x="100" y="250" width="10" height="10" as="geometry" />
        </mxCell>
        <mxCell id="IYdqFMrbhZFDWDfa6gce-24" value="" style="rounded=0;whiteSpace=wrap;html=1;fillColor=#0000FF;" vertex="1" parent="1">
          <mxGeometry x="110" y="250" width="10" height="10" as="geometry" />
        </mxCell>
        <mxCell id="IYdqFMrbhZFDWDfa6gce-25" value="" style="rounded=0;whiteSpace=wrap;html=1;fillColor=#0000FF;" vertex="1" parent="1">
          <mxGeometry x="120" y="250" width="10" height="10" as="geometry" />
        </mxCell>
        <mxCell id="IYdqFMrbhZFDWDfa6gce-26" value="" style="rounded=0;whiteSpace=wrap;html=1;fillColor=#0000FF;" vertex="1" parent="1">
          <mxGeometry x="130" y="250" width="10" height="10" as="geometry" />
        </mxCell>
        <mxCell id="IYdqFMrbhZFDWDfa6gce-27" value="" style="rounded=0;whiteSpace=wrap;html=1;fillColor=#0000FF;" vertex="1" parent="1">
          <mxGeometry x="140" y="250" width="10" height="10" as="geometry" />
        </mxCell>
        <mxCell id="IYdqFMrbhZFDWDfa6gce-28" value="" style="rounded=0;whiteSpace=wrap;html=1;fillColor=#0000FF;" vertex="1" parent="1">
          <mxGeometry x="150" y="250" width="10" height="10" as="geometry" />
        </mxCell>
        <mxCell id="IYdqFMrbhZFDWDfa6gce-29" value="" style="rounded=0;whiteSpace=wrap;html=1;fillColor=#0000FF;" vertex="1" parent="1">
          <mxGeometry x="160" y="250" width="10" height="10" as="geometry" />
        </mxCell>
        <mxCell id="IYdqFMrbhZFDWDfa6gce-30" value="" style="rounded=0;whiteSpace=wrap;html=1;fillColor=#0000FF;" vertex="1" parent="1">
          <mxGeometry x="170" y="250" width="10" height="10" as="geometry" />
        </mxCell>
        <mxCell id="IYdqFMrbhZFDWDfa6gce-31" value="" style="rounded=0;whiteSpace=wrap;html=1;fillColor=#0000FF;" vertex="1" parent="1">
          <mxGeometry x="180" y="250" width="10" height="10" as="geometry" />
        </mxCell>
        <mxCell id="IYdqFMrbhZFDWDfa6gce-32" value="" style="rounded=0;whiteSpace=wrap;html=1;fillColor=#0000FF;" vertex="1" parent="1">
          <mxGeometry x="190" y="250" width="10" height="10" as="geometry" />
        </mxCell>
        <mxCell id="IYdqFMrbhZFDWDfa6gce-33" value="" style="rounded=0;whiteSpace=wrap;html=1;fillColor=#0000FF;" vertex="1" parent="1">
          <mxGeometry x="200" y="250" width="10" height="10" as="geometry" />
        </mxCell>
        <mxCell id="IYdqFMrbhZFDWDfa6gce-34" value="" style="rounded=0;whiteSpace=wrap;html=1;fillColor=#0000FF;" vertex="1" parent="1">
          <mxGeometry x="210" y="250" width="10" height="10" as="geometry" />
        </mxCell>
        <mxCell id="IYdqFMrbhZFDWDfa6gce-35" value="" style="rounded=0;whiteSpace=wrap;html=1;fillColor=#0000FF;" vertex="1" parent="1">
          <mxGeometry x="220" y="250" width="10" height="10" as="geometry" />
        </mxCell>
        <mxCell id="IYdqFMrbhZFDWDfa6gce-36" value="" style="rounded=0;whiteSpace=wrap;html=1;fillColor=#0000FF;" vertex="1" parent="1">
          <mxGeometry x="230" y="250" width="10" height="10" as="geometry" />
        </mxCell>
        <mxCell id="IYdqFMrbhZFDWDfa6gce-37" value="" style="rounded=0;whiteSpace=wrap;html=1;fillColor=#0000FF;" vertex="1" parent="1">
          <mxGeometry x="80" y="260" width="10" height="10" as="geometry" />
        </mxCell>
        <mxCell id="IYdqFMrbhZFDWDfa6gce-38" value="" style="rounded=0;whiteSpace=wrap;html=1;fillColor=#0000FF;" vertex="1" parent="1">
          <mxGeometry x="80" y="270" width="10" height="10" as="geometry" />
        </mxCell>
        <mxCell id="IYdqFMrbhZFDWDfa6gce-39" value="" style="rounded=0;whiteSpace=wrap;html=1;fillColor=#0000FF;" vertex="1" parent="1">
          <mxGeometry x="80" y="280" width="10" height="10" as="geometry" />
        </mxCell>
        <mxCell id="IYdqFMrbhZFDWDfa6gce-40" value="" style="rounded=0;whiteSpace=wrap;html=1;fillColor=#0000FF;" vertex="1" parent="1">
          <mxGeometry x="80" y="290" width="10" height="10" as="geometry" />
        </mxCell>
        <mxCell id="IYdqFMrbhZFDWDfa6gce-41" value="" style="rounded=0;whiteSpace=wrap;html=1;fillColor=#0000FF;" vertex="1" parent="1">
          <mxGeometry x="80" y="300" width="10" height="10" as="geometry" />
        </mxCell>
        <mxCell id="IYdqFMrbhZFDWDfa6gce-42" value="" style="rounded=0;whiteSpace=wrap;html=1;fillColor=#0000FF;" vertex="1" parent="1">
          <mxGeometry x="80" y="310" width="10" height="10" as="geometry" />
        </mxCell>
        <mxCell id="IYdqFMrbhZFDWDfa6gce-43" value="" style="rounded=0;whiteSpace=wrap;html=1;fillColor=#0000FF;" vertex="1" parent="1">
          <mxGeometry x="80" y="320" width="10" height="10" as="geometry" />
        </mxCell>
        <mxCell id="IYdqFMrbhZFDWDfa6gce-44" value="" style="rounded=0;whiteSpace=wrap;html=1;fillColor=#0000FF;" vertex="1" parent="1">
          <mxGeometry x="80" y="330" width="10" height="10" as="geometry" />
        </mxCell>
        <mxCell id="IYdqFMrbhZFDWDfa6gce-45" value="" style="rounded=0;whiteSpace=wrap;html=1;fillColor=#0000FF;" vertex="1" parent="1">
          <mxGeometry x="90" y="260" width="10" height="10" as="geometry" />
        </mxCell>
        <mxCell id="IYdqFMrbhZFDWDfa6gce-46" value="" style="rounded=0;whiteSpace=wrap;html=1;fillColor=#0000FF;" vertex="1" parent="1">
          <mxGeometry x="100" y="260" width="10" height="10" as="geometry" />
        </mxCell>
        <mxCell id="IYdqFMrbhZFDWDfa6gce-47" value="" style="rounded=0;whiteSpace=wrap;html=1;fillColor=#0000FF;" vertex="1" parent="1">
          <mxGeometry x="110" y="260" width="10" height="10" as="geometry" />
        </mxCell>
        <mxCell id="IYdqFMrbhZFDWDfa6gce-48" value="" style="rounded=0;whiteSpace=wrap;html=1;fillColor=#0000FF;" vertex="1" parent="1">
          <mxGeometry x="120" y="260" width="10" height="10" as="geometry" />
        </mxCell>
        <mxCell id="IYdqFMrbhZFDWDfa6gce-49" value="" style="rounded=0;whiteSpace=wrap;html=1;fillColor=#0000FF;" vertex="1" parent="1">
          <mxGeometry x="130" y="260" width="10" height="10" as="geometry" />
        </mxCell>
        <mxCell id="IYdqFMrbhZFDWDfa6gce-50" value="" style="rounded=0;whiteSpace=wrap;html=1;fillColor=#0000FF;" vertex="1" parent="1">
          <mxGeometry x="140" y="260" width="10" height="10" as="geometry" />
        </mxCell>
        <mxCell id="IYdqFMrbhZFDWDfa6gce-51" value="" style="rounded=0;whiteSpace=wrap;html=1;fillColor=#0000FF;" vertex="1" parent="1">
          <mxGeometry x="150" y="260" width="10" height="10" as="geometry" />
        </mxCell>
        <mxCell id="IYdqFMrbhZFDWDfa6gce-52" value="" style="rounded=0;whiteSpace=wrap;html=1;fillColor=#0000FF;" vertex="1" parent="1">
          <mxGeometry x="160" y="260" width="10" height="10" as="geometry" />
        </mxCell>
        <mxCell id="IYdqFMrbhZFDWDfa6gce-53" value="" style="rounded=0;whiteSpace=wrap;html=1;fillColor=#0000FF;" vertex="1" parent="1">
          <mxGeometry x="170" y="260" width="10" height="10" as="geometry" />
        </mxCell>
        <mxCell id="IYdqFMrbhZFDWDfa6gce-54" value="" style="rounded=0;whiteSpace=wrap;html=1;fillColor=#0000FF;" vertex="1" parent="1">
          <mxGeometry x="180" y="260" width="10" height="10" as="geometry" />
        </mxCell>
        <mxCell id="IYdqFMrbhZFDWDfa6gce-55" value="" style="rounded=0;whiteSpace=wrap;html=1;fillColor=#0000FF;" vertex="1" parent="1">
          <mxGeometry x="190" y="260" width="10" height="10" as="geometry" />
        </mxCell>
        <mxCell id="IYdqFMrbhZFDWDfa6gce-56" value="" style="rounded=0;whiteSpace=wrap;html=1;fillColor=#0000FF;" vertex="1" parent="1">
          <mxGeometry x="200" y="260" width="10" height="10" as="geometry" />
        </mxCell>
        <mxCell id="IYdqFMrbhZFDWDfa6gce-57" value="" style="rounded=0;whiteSpace=wrap;html=1;fillColor=#0000FF;" vertex="1" parent="1">
          <mxGeometry x="210" y="260" width="10" height="10" as="geometry" />
        </mxCell>
        <mxCell id="IYdqFMrbhZFDWDfa6gce-58" value="" style="rounded=0;whiteSpace=wrap;html=1;fillColor=#0000FF;" vertex="1" parent="1">
          <mxGeometry x="220" y="260" width="10" height="10" as="geometry" />
        </mxCell>
        <mxCell id="IYdqFMrbhZFDWDfa6gce-59" value="" style="rounded=0;whiteSpace=wrap;html=1;fillColor=#0000FF;" vertex="1" parent="1">
          <mxGeometry x="230" y="260" width="10" height="10" as="geometry" />
        </mxCell>
        <mxCell id="IYdqFMrbhZFDWDfa6gce-75" value="" style="rounded=0;whiteSpace=wrap;html=1;fillColor=#0000FF;" vertex="1" parent="1">
          <mxGeometry x="90" y="270" width="10" height="10" as="geometry" />
        </mxCell>
        <mxCell id="IYdqFMrbhZFDWDfa6gce-76" value="" style="rounded=0;whiteSpace=wrap;html=1;fillColor=#0000FF;" vertex="1" parent="1">
          <mxGeometry x="100" y="270" width="10" height="10" as="geometry" />
        </mxCell>
        <mxCell id="IYdqFMrbhZFDWDfa6gce-77" value="" style="rounded=0;whiteSpace=wrap;html=1;fillColor=#0000FF;" vertex="1" parent="1">
          <mxGeometry x="110" y="270" width="10" height="10" as="geometry" />
        </mxCell>
        <mxCell id="IYdqFMrbhZFDWDfa6gce-78" value="" style="rounded=0;whiteSpace=wrap;html=1;fillColor=#0000FF;" vertex="1" parent="1">
          <mxGeometry x="120" y="270" width="10" height="10" as="geometry" />
        </mxCell>
        <mxCell id="IYdqFMrbhZFDWDfa6gce-79" value="" style="rounded=0;whiteSpace=wrap;html=1;fillColor=#0000FF;" vertex="1" parent="1">
          <mxGeometry x="130" y="270" width="10" height="10" as="geometry" />
        </mxCell>
        <mxCell id="IYdqFMrbhZFDWDfa6gce-80" value="" style="rounded=0;whiteSpace=wrap;html=1;fillColor=#0000FF;" vertex="1" parent="1">
          <mxGeometry x="140" y="270" width="10" height="10" as="geometry" />
        </mxCell>
        <mxCell id="IYdqFMrbhZFDWDfa6gce-81" value="" style="rounded=0;whiteSpace=wrap;html=1;fillColor=#0000FF;" vertex="1" parent="1">
          <mxGeometry x="150" y="270" width="10" height="10" as="geometry" />
        </mxCell>
        <mxCell id="IYdqFMrbhZFDWDfa6gce-82" value="" style="rounded=0;whiteSpace=wrap;html=1;fillColor=#0000FF;" vertex="1" parent="1">
          <mxGeometry x="160" y="270" width="10" height="10" as="geometry" />
        </mxCell>
        <mxCell id="IYdqFMrbhZFDWDfa6gce-83" value="" style="rounded=0;whiteSpace=wrap;html=1;fillColor=#0000FF;" vertex="1" parent="1">
          <mxGeometry x="170" y="270" width="10" height="10" as="geometry" />
        </mxCell>
        <mxCell id="IYdqFMrbhZFDWDfa6gce-84" value="" style="rounded=0;whiteSpace=wrap;html=1;fillColor=#0000FF;" vertex="1" parent="1">
          <mxGeometry x="180" y="270" width="10" height="10" as="geometry" />
        </mxCell>
        <mxCell id="IYdqFMrbhZFDWDfa6gce-85" value="" style="rounded=0;whiteSpace=wrap;html=1;fillColor=#0000FF;" vertex="1" parent="1">
          <mxGeometry x="190" y="270" width="10" height="10" as="geometry" />
        </mxCell>
        <mxCell id="IYdqFMrbhZFDWDfa6gce-86" value="" style="rounded=0;whiteSpace=wrap;html=1;fillColor=#0000FF;" vertex="1" parent="1">
          <mxGeometry x="200" y="270" width="10" height="10" as="geometry" />
        </mxCell>
        <mxCell id="IYdqFMrbhZFDWDfa6gce-87" value="" style="rounded=0;whiteSpace=wrap;html=1;fillColor=#0000FF;" vertex="1" parent="1">
          <mxGeometry x="210" y="270" width="10" height="10" as="geometry" />
        </mxCell>
        <mxCell id="IYdqFMrbhZFDWDfa6gce-88" value="" style="rounded=0;whiteSpace=wrap;html=1;fillColor=#0000FF;" vertex="1" parent="1">
          <mxGeometry x="220" y="270" width="10" height="10" as="geometry" />
        </mxCell>
        <mxCell id="IYdqFMrbhZFDWDfa6gce-89" value="" style="rounded=0;whiteSpace=wrap;html=1;fillColor=#0000FF;" vertex="1" parent="1">
          <mxGeometry x="230" y="270" width="10" height="10" as="geometry" />
        </mxCell>
        <mxCell id="IYdqFMrbhZFDWDfa6gce-90" value="" style="rounded=0;whiteSpace=wrap;html=1;fillColor=#0000FF;" vertex="1" parent="1">
          <mxGeometry x="90" y="280" width="10" height="10" as="geometry" />
        </mxCell>
        <mxCell id="IYdqFMrbhZFDWDfa6gce-91" value="" style="rounded=0;whiteSpace=wrap;html=1;fillColor=#0000FF;" vertex="1" parent="1">
          <mxGeometry x="100" y="280" width="10" height="10" as="geometry" />
        </mxCell>
        <mxCell id="IYdqFMrbhZFDWDfa6gce-92" value="" style="rounded=0;whiteSpace=wrap;html=1;fillColor=#0000FF;" vertex="1" parent="1">
          <mxGeometry x="110" y="280" width="10" height="10" as="geometry" />
        </mxCell>
        <mxCell id="IYdqFMrbhZFDWDfa6gce-93" value="" style="rounded=0;whiteSpace=wrap;html=1;fillColor=#0000FF;" vertex="1" parent="1">
          <mxGeometry x="120" y="280" width="10" height="10" as="geometry" />
        </mxCell>
        <mxCell id="IYdqFMrbhZFDWDfa6gce-94" value="" style="rounded=0;whiteSpace=wrap;html=1;fillColor=#0000FF;" vertex="1" parent="1">
          <mxGeometry x="130" y="280" width="10" height="10" as="geometry" />
        </mxCell>
        <mxCell id="IYdqFMrbhZFDWDfa6gce-95" value="" style="rounded=0;whiteSpace=wrap;html=1;fillColor=#0000FF;" vertex="1" parent="1">
          <mxGeometry x="140" y="280" width="10" height="10" as="geometry" />
        </mxCell>
        <mxCell id="IYdqFMrbhZFDWDfa6gce-96" value="" style="rounded=0;whiteSpace=wrap;html=1;fillColor=#0000FF;" vertex="1" parent="1">
          <mxGeometry x="150" y="280" width="10" height="10" as="geometry" />
        </mxCell>
        <mxCell id="IYdqFMrbhZFDWDfa6gce-97" value="" style="rounded=0;whiteSpace=wrap;html=1;fillColor=#0000FF;" vertex="1" parent="1">
          <mxGeometry x="160" y="280" width="10" height="10" as="geometry" />
        </mxCell>
        <mxCell id="IYdqFMrbhZFDWDfa6gce-98" value="" style="rounded=0;whiteSpace=wrap;html=1;fillColor=#0000FF;" vertex="1" parent="1">
          <mxGeometry x="170" y="280" width="10" height="10" as="geometry" />
        </mxCell>
        <mxCell id="IYdqFMrbhZFDWDfa6gce-99" value="" style="rounded=0;whiteSpace=wrap;html=1;fillColor=#0000FF;" vertex="1" parent="1">
          <mxGeometry x="180" y="280" width="10" height="10" as="geometry" />
        </mxCell>
        <mxCell id="IYdqFMrbhZFDWDfa6gce-100" value="" style="rounded=0;whiteSpace=wrap;html=1;fillColor=#0000FF;" vertex="1" parent="1">
          <mxGeometry x="190" y="280" width="10" height="10" as="geometry" />
        </mxCell>
        <mxCell id="IYdqFMrbhZFDWDfa6gce-101" value="" style="rounded=0;whiteSpace=wrap;html=1;fillColor=#0000FF;" vertex="1" parent="1">
          <mxGeometry x="200" y="280" width="10" height="10" as="geometry" />
        </mxCell>
        <mxCell id="IYdqFMrbhZFDWDfa6gce-102" value="" style="rounded=0;whiteSpace=wrap;html=1;fillColor=#0000FF;" vertex="1" parent="1">
          <mxGeometry x="210" y="280" width="10" height="10" as="geometry" />
        </mxCell>
        <mxCell id="IYdqFMrbhZFDWDfa6gce-103" value="" style="rounded=0;whiteSpace=wrap;html=1;fillColor=#0000FF;" vertex="1" parent="1">
          <mxGeometry x="220" y="280" width="10" height="10" as="geometry" />
        </mxCell>
        <mxCell id="IYdqFMrbhZFDWDfa6gce-104" value="" style="rounded=0;whiteSpace=wrap;html=1;fillColor=#0000FF;" vertex="1" parent="1">
          <mxGeometry x="230" y="280" width="10" height="10" as="geometry" />
        </mxCell>
        <mxCell id="IYdqFMrbhZFDWDfa6gce-105" value="" style="rounded=0;whiteSpace=wrap;html=1;fillColor=#0000FF;" vertex="1" parent="1">
          <mxGeometry x="90" y="290" width="10" height="10" as="geometry" />
        </mxCell>
        <mxCell id="IYdqFMrbhZFDWDfa6gce-106" value="" style="rounded=0;whiteSpace=wrap;html=1;fillColor=#0000FF;" vertex="1" parent="1">
          <mxGeometry x="100" y="290" width="10" height="10" as="geometry" />
        </mxCell>
        <mxCell id="IYdqFMrbhZFDWDfa6gce-107" value="" style="rounded=0;whiteSpace=wrap;html=1;fillColor=#0000FF;" vertex="1" parent="1">
          <mxGeometry x="110" y="290" width="10" height="10" as="geometry" />
        </mxCell>
        <mxCell id="IYdqFMrbhZFDWDfa6gce-108" value="" style="rounded=0;whiteSpace=wrap;html=1;fillColor=#0000FF;" vertex="1" parent="1">
          <mxGeometry x="120" y="290" width="10" height="10" as="geometry" />
        </mxCell>
        <mxCell id="IYdqFMrbhZFDWDfa6gce-109" value="" style="rounded=0;whiteSpace=wrap;html=1;fillColor=#0000FF;" vertex="1" parent="1">
          <mxGeometry x="130" y="290" width="10" height="10" as="geometry" />
        </mxCell>
        <mxCell id="IYdqFMrbhZFDWDfa6gce-110" value="" style="rounded=0;whiteSpace=wrap;html=1;fillColor=#0000FF;" vertex="1" parent="1">
          <mxGeometry x="140" y="290" width="10" height="10" as="geometry" />
        </mxCell>
        <mxCell id="IYdqFMrbhZFDWDfa6gce-111" value="" style="rounded=0;whiteSpace=wrap;html=1;fillColor=#0000FF;" vertex="1" parent="1">
          <mxGeometry x="150" y="290" width="10" height="10" as="geometry" />
        </mxCell>
        <mxCell id="IYdqFMrbhZFDWDfa6gce-112" value="" style="rounded=0;whiteSpace=wrap;html=1;fillColor=#0000FF;" vertex="1" parent="1">
          <mxGeometry x="160" y="290" width="10" height="10" as="geometry" />
        </mxCell>
        <mxCell id="IYdqFMrbhZFDWDfa6gce-113" value="" style="rounded=0;whiteSpace=wrap;html=1;fillColor=#0000FF;" vertex="1" parent="1">
          <mxGeometry x="170" y="290" width="10" height="10" as="geometry" />
        </mxCell>
        <mxCell id="IYdqFMrbhZFDWDfa6gce-114" value="" style="rounded=0;whiteSpace=wrap;html=1;fillColor=#0000FF;" vertex="1" parent="1">
          <mxGeometry x="180" y="290" width="10" height="10" as="geometry" />
        </mxCell>
        <mxCell id="IYdqFMrbhZFDWDfa6gce-115" value="" style="rounded=0;whiteSpace=wrap;html=1;fillColor=#0000FF;" vertex="1" parent="1">
          <mxGeometry x="190" y="290" width="10" height="10" as="geometry" />
        </mxCell>
        <mxCell id="IYdqFMrbhZFDWDfa6gce-116" value="" style="rounded=0;whiteSpace=wrap;html=1;fillColor=#0000FF;" vertex="1" parent="1">
          <mxGeometry x="200" y="290" width="10" height="10" as="geometry" />
        </mxCell>
        <mxCell id="IYdqFMrbhZFDWDfa6gce-117" value="" style="rounded=0;whiteSpace=wrap;html=1;fillColor=#0000FF;" vertex="1" parent="1">
          <mxGeometry x="210" y="290" width="10" height="10" as="geometry" />
        </mxCell>
        <mxCell id="IYdqFMrbhZFDWDfa6gce-118" value="" style="rounded=0;whiteSpace=wrap;html=1;fillColor=#0000FF;" vertex="1" parent="1">
          <mxGeometry x="220" y="290" width="10" height="10" as="geometry" />
        </mxCell>
        <mxCell id="IYdqFMrbhZFDWDfa6gce-119" value="" style="rounded=0;whiteSpace=wrap;html=1;fillColor=#0000FF;" vertex="1" parent="1">
          <mxGeometry x="230" y="290" width="10" height="10" as="geometry" />
        </mxCell>
        <mxCell id="IYdqFMrbhZFDWDfa6gce-120" value="" style="rounded=0;whiteSpace=wrap;html=1;fillColor=#0000FF;" vertex="1" parent="1">
          <mxGeometry x="90" y="300" width="10" height="10" as="geometry" />
        </mxCell>
        <mxCell id="IYdqFMrbhZFDWDfa6gce-121" value="" style="rounded=0;whiteSpace=wrap;html=1;fillColor=#0000FF;" vertex="1" parent="1">
          <mxGeometry x="100" y="300" width="10" height="10" as="geometry" />
        </mxCell>
        <mxCell id="IYdqFMrbhZFDWDfa6gce-122" value="" style="rounded=0;whiteSpace=wrap;html=1;fillColor=#0000FF;" vertex="1" parent="1">
          <mxGeometry x="110" y="300" width="10" height="10" as="geometry" />
        </mxCell>
        <mxCell id="IYdqFMrbhZFDWDfa6gce-123" value="" style="rounded=0;whiteSpace=wrap;html=1;fillColor=#0000FF;" vertex="1" parent="1">
          <mxGeometry x="120" y="300" width="10" height="10" as="geometry" />
        </mxCell>
        <mxCell id="IYdqFMrbhZFDWDfa6gce-124" value="" style="rounded=0;whiteSpace=wrap;html=1;fillColor=#0000FF;" vertex="1" parent="1">
          <mxGeometry x="130" y="300" width="10" height="10" as="geometry" />
        </mxCell>
        <mxCell id="IYdqFMrbhZFDWDfa6gce-125" value="" style="rounded=0;whiteSpace=wrap;html=1;fillColor=#0000FF;" vertex="1" parent="1">
          <mxGeometry x="140" y="300" width="10" height="10" as="geometry" />
        </mxCell>
        <mxCell id="IYdqFMrbhZFDWDfa6gce-126" value="" style="rounded=0;whiteSpace=wrap;html=1;fillColor=#0000FF;" vertex="1" parent="1">
          <mxGeometry x="150" y="300" width="10" height="10" as="geometry" />
        </mxCell>
        <mxCell id="IYdqFMrbhZFDWDfa6gce-127" value="" style="rounded=0;whiteSpace=wrap;html=1;fillColor=#0000FF;" vertex="1" parent="1">
          <mxGeometry x="160" y="300" width="10" height="10" as="geometry" />
        </mxCell>
        <mxCell id="IYdqFMrbhZFDWDfa6gce-128" value="" style="rounded=0;whiteSpace=wrap;html=1;fillColor=#0000FF;" vertex="1" parent="1">
          <mxGeometry x="170" y="300" width="10" height="10" as="geometry" />
        </mxCell>
        <mxCell id="IYdqFMrbhZFDWDfa6gce-129" value="" style="rounded=0;whiteSpace=wrap;html=1;fillColor=#0000FF;" vertex="1" parent="1">
          <mxGeometry x="180" y="300" width="10" height="10" as="geometry" />
        </mxCell>
        <mxCell id="IYdqFMrbhZFDWDfa6gce-130" value="" style="rounded=0;whiteSpace=wrap;html=1;fillColor=#0000FF;" vertex="1" parent="1">
          <mxGeometry x="190" y="300" width="10" height="10" as="geometry" />
        </mxCell>
        <mxCell id="IYdqFMrbhZFDWDfa6gce-131" value="" style="rounded=0;whiteSpace=wrap;html=1;fillColor=#0000FF;" vertex="1" parent="1">
          <mxGeometry x="200" y="300" width="10" height="10" as="geometry" />
        </mxCell>
        <mxCell id="IYdqFMrbhZFDWDfa6gce-132" value="" style="rounded=0;whiteSpace=wrap;html=1;fillColor=#0000FF;" vertex="1" parent="1">
          <mxGeometry x="210" y="300" width="10" height="10" as="geometry" />
        </mxCell>
        <mxCell id="IYdqFMrbhZFDWDfa6gce-133" value="" style="rounded=0;whiteSpace=wrap;html=1;fillColor=#0000FF;" vertex="1" parent="1">
          <mxGeometry x="220" y="300" width="10" height="10" as="geometry" />
        </mxCell>
        <mxCell id="IYdqFMrbhZFDWDfa6gce-134" value="" style="rounded=0;whiteSpace=wrap;html=1;fillColor=#0000FF;" vertex="1" parent="1">
          <mxGeometry x="230" y="300" width="10" height="10" as="geometry" />
        </mxCell>
        <mxCell id="IYdqFMrbhZFDWDfa6gce-135" value="" style="rounded=0;whiteSpace=wrap;html=1;fillColor=#0000FF;" vertex="1" parent="1">
          <mxGeometry x="90" y="310" width="10" height="10" as="geometry" />
        </mxCell>
        <mxCell id="IYdqFMrbhZFDWDfa6gce-136" value="" style="rounded=0;whiteSpace=wrap;html=1;fillColor=#0000FF;" vertex="1" parent="1">
          <mxGeometry x="100" y="310" width="10" height="10" as="geometry" />
        </mxCell>
        <mxCell id="IYdqFMrbhZFDWDfa6gce-137" value="" style="rounded=0;whiteSpace=wrap;html=1;fillColor=#0000FF;" vertex="1" parent="1">
          <mxGeometry x="110" y="310" width="10" height="10" as="geometry" />
        </mxCell>
        <mxCell id="IYdqFMrbhZFDWDfa6gce-138" value="" style="rounded=0;whiteSpace=wrap;html=1;fillColor=#0000FF;" vertex="1" parent="1">
          <mxGeometry x="120" y="310" width="10" height="10" as="geometry" />
        </mxCell>
        <mxCell id="IYdqFMrbhZFDWDfa6gce-139" value="" style="rounded=0;whiteSpace=wrap;html=1;fillColor=#0000FF;" vertex="1" parent="1">
          <mxGeometry x="130" y="310" width="10" height="10" as="geometry" />
        </mxCell>
        <mxCell id="IYdqFMrbhZFDWDfa6gce-140" value="" style="rounded=0;whiteSpace=wrap;html=1;fillColor=#0000FF;" vertex="1" parent="1">
          <mxGeometry x="140" y="310" width="10" height="10" as="geometry" />
        </mxCell>
        <mxCell id="IYdqFMrbhZFDWDfa6gce-141" value="" style="rounded=0;whiteSpace=wrap;html=1;fillColor=#0000FF;" vertex="1" parent="1">
          <mxGeometry x="150" y="310" width="10" height="10" as="geometry" />
        </mxCell>
        <mxCell id="IYdqFMrbhZFDWDfa6gce-142" value="" style="rounded=0;whiteSpace=wrap;html=1;fillColor=#0000FF;" vertex="1" parent="1">
          <mxGeometry x="160" y="310" width="10" height="10" as="geometry" />
        </mxCell>
        <mxCell id="IYdqFMrbhZFDWDfa6gce-143" value="" style="rounded=0;whiteSpace=wrap;html=1;fillColor=#0000FF;" vertex="1" parent="1">
          <mxGeometry x="170" y="310" width="10" height="10" as="geometry" />
        </mxCell>
        <mxCell id="IYdqFMrbhZFDWDfa6gce-144" value="" style="rounded=0;whiteSpace=wrap;html=1;fillColor=#0000FF;" vertex="1" parent="1">
          <mxGeometry x="180" y="310" width="10" height="10" as="geometry" />
        </mxCell>
        <mxCell id="IYdqFMrbhZFDWDfa6gce-145" value="" style="rounded=0;whiteSpace=wrap;html=1;fillColor=#0000FF;" vertex="1" parent="1">
          <mxGeometry x="190" y="310" width="10" height="10" as="geometry" />
        </mxCell>
        <mxCell id="IYdqFMrbhZFDWDfa6gce-146" value="" style="rounded=0;whiteSpace=wrap;html=1;fillColor=#0000FF;" vertex="1" parent="1">
          <mxGeometry x="200" y="310" width="10" height="10" as="geometry" />
        </mxCell>
        <mxCell id="IYdqFMrbhZFDWDfa6gce-147" value="" style="rounded=0;whiteSpace=wrap;html=1;fillColor=#0000FF;" vertex="1" parent="1">
          <mxGeometry x="210" y="310" width="10" height="10" as="geometry" />
        </mxCell>
        <mxCell id="IYdqFMrbhZFDWDfa6gce-148" value="" style="rounded=0;whiteSpace=wrap;html=1;fillColor=#0000FF;" vertex="1" parent="1">
          <mxGeometry x="220" y="310" width="10" height="10" as="geometry" />
        </mxCell>
        <mxCell id="IYdqFMrbhZFDWDfa6gce-149" value="" style="rounded=0;whiteSpace=wrap;html=1;fillColor=#0000FF;" vertex="1" parent="1">
          <mxGeometry x="230" y="310" width="10" height="10" as="geometry" />
        </mxCell>
        <mxCell id="IYdqFMrbhZFDWDfa6gce-150" value="" style="rounded=0;whiteSpace=wrap;html=1;fillColor=#0000FF;" vertex="1" parent="1">
          <mxGeometry x="90" y="320" width="10" height="10" as="geometry" />
        </mxCell>
        <mxCell id="IYdqFMrbhZFDWDfa6gce-151" value="" style="rounded=0;whiteSpace=wrap;html=1;fillColor=#0000FF;" vertex="1" parent="1">
          <mxGeometry x="100" y="320" width="10" height="10" as="geometry" />
        </mxCell>
        <mxCell id="IYdqFMrbhZFDWDfa6gce-152" value="" style="rounded=0;whiteSpace=wrap;html=1;fillColor=#0000FF;" vertex="1" parent="1">
          <mxGeometry x="110" y="320" width="10" height="10" as="geometry" />
        </mxCell>
        <mxCell id="IYdqFMrbhZFDWDfa6gce-153" value="" style="rounded=0;whiteSpace=wrap;html=1;fillColor=#0000FF;" vertex="1" parent="1">
          <mxGeometry x="120" y="320" width="10" height="10" as="geometry" />
        </mxCell>
        <mxCell id="IYdqFMrbhZFDWDfa6gce-154" value="" style="rounded=0;whiteSpace=wrap;html=1;fillColor=#0000FF;" vertex="1" parent="1">
          <mxGeometry x="130" y="320" width="10" height="10" as="geometry" />
        </mxCell>
        <mxCell id="IYdqFMrbhZFDWDfa6gce-155" value="" style="rounded=0;whiteSpace=wrap;html=1;fillColor=#0000FF;" vertex="1" parent="1">
          <mxGeometry x="140" y="320" width="10" height="10" as="geometry" />
        </mxCell>
        <mxCell id="IYdqFMrbhZFDWDfa6gce-156" value="" style="rounded=0;whiteSpace=wrap;html=1;fillColor=#0000FF;" vertex="1" parent="1">
          <mxGeometry x="150" y="320" width="10" height="10" as="geometry" />
        </mxCell>
        <mxCell id="IYdqFMrbhZFDWDfa6gce-157" value="" style="rounded=0;whiteSpace=wrap;html=1;fillColor=#0000FF;" vertex="1" parent="1">
          <mxGeometry x="160" y="320" width="10" height="10" as="geometry" />
        </mxCell>
        <mxCell id="IYdqFMrbhZFDWDfa6gce-158" value="" style="rounded=0;whiteSpace=wrap;html=1;fillColor=#0000FF;" vertex="1" parent="1">
          <mxGeometry x="170" y="320" width="10" height="10" as="geometry" />
        </mxCell>
        <mxCell id="IYdqFMrbhZFDWDfa6gce-159" value="" style="rounded=0;whiteSpace=wrap;html=1;fillColor=#0000FF;" vertex="1" parent="1">
          <mxGeometry x="180" y="320" width="10" height="10" as="geometry" />
        </mxCell>
        <mxCell id="IYdqFMrbhZFDWDfa6gce-160" value="" style="rounded=0;whiteSpace=wrap;html=1;fillColor=#0000FF;" vertex="1" parent="1">
          <mxGeometry x="190" y="320" width="10" height="10" as="geometry" />
        </mxCell>
        <mxCell id="IYdqFMrbhZFDWDfa6gce-161" value="" style="rounded=0;whiteSpace=wrap;html=1;fillColor=#0000FF;" vertex="1" parent="1">
          <mxGeometry x="200" y="320" width="10" height="10" as="geometry" />
        </mxCell>
        <mxCell id="IYdqFMrbhZFDWDfa6gce-162" value="" style="rounded=0;whiteSpace=wrap;html=1;fillColor=#0000FF;" vertex="1" parent="1">
          <mxGeometry x="210" y="320" width="10" height="10" as="geometry" />
        </mxCell>
        <mxCell id="IYdqFMrbhZFDWDfa6gce-163" value="" style="rounded=0;whiteSpace=wrap;html=1;fillColor=#0000FF;" vertex="1" parent="1">
          <mxGeometry x="220" y="320" width="10" height="10" as="geometry" />
        </mxCell>
        <mxCell id="IYdqFMrbhZFDWDfa6gce-164" value="" style="rounded=0;whiteSpace=wrap;html=1;fillColor=#0000FF;" vertex="1" parent="1">
          <mxGeometry x="230" y="320" width="10" height="10" as="geometry" />
        </mxCell>
        <mxCell id="IYdqFMrbhZFDWDfa6gce-165" value="" style="rounded=0;whiteSpace=wrap;html=1;fillColor=#0000FF;" vertex="1" parent="1">
          <mxGeometry x="90" y="330" width="10" height="10" as="geometry" />
        </mxCell>
        <mxCell id="IYdqFMrbhZFDWDfa6gce-166" value="" style="rounded=0;whiteSpace=wrap;html=1;fillColor=#0000FF;" vertex="1" parent="1">
          <mxGeometry x="100" y="330" width="10" height="10" as="geometry" />
        </mxCell>
        <mxCell id="IYdqFMrbhZFDWDfa6gce-167" value="" style="rounded=0;whiteSpace=wrap;html=1;fillColor=#0000FF;" vertex="1" parent="1">
          <mxGeometry x="110" y="330" width="10" height="10" as="geometry" />
        </mxCell>
        <mxCell id="IYdqFMrbhZFDWDfa6gce-168" value="" style="rounded=0;whiteSpace=wrap;html=1;fillColor=#0000FF;" vertex="1" parent="1">
          <mxGeometry x="120" y="330" width="10" height="10" as="geometry" />
        </mxCell>
        <mxCell id="IYdqFMrbhZFDWDfa6gce-169" value="" style="rounded=0;whiteSpace=wrap;html=1;fillColor=#0000FF;" vertex="1" parent="1">
          <mxGeometry x="130" y="330" width="10" height="10" as="geometry" />
        </mxCell>
        <mxCell id="IYdqFMrbhZFDWDfa6gce-170" value="" style="rounded=0;whiteSpace=wrap;html=1;fillColor=#0000FF;" vertex="1" parent="1">
          <mxGeometry x="140" y="330" width="10" height="10" as="geometry" />
        </mxCell>
        <mxCell id="IYdqFMrbhZFDWDfa6gce-171" value="" style="rounded=0;whiteSpace=wrap;html=1;fillColor=#0000FF;" vertex="1" parent="1">
          <mxGeometry x="150" y="330" width="10" height="10" as="geometry" />
        </mxCell>
        <mxCell id="IYdqFMrbhZFDWDfa6gce-172" value="" style="rounded=0;whiteSpace=wrap;html=1;fillColor=#0000FF;" vertex="1" parent="1">
          <mxGeometry x="160" y="330" width="10" height="10" as="geometry" />
        </mxCell>
        <mxCell id="IYdqFMrbhZFDWDfa6gce-173" value="" style="rounded=0;whiteSpace=wrap;html=1;fillColor=#0000FF;" vertex="1" parent="1">
          <mxGeometry x="170" y="330" width="10" height="10" as="geometry" />
        </mxCell>
        <mxCell id="IYdqFMrbhZFDWDfa6gce-174" value="" style="rounded=0;whiteSpace=wrap;html=1;fillColor=#0000FF;" vertex="1" parent="1">
          <mxGeometry x="180" y="330" width="10" height="10" as="geometry" />
        </mxCell>
        <mxCell id="IYdqFMrbhZFDWDfa6gce-175" value="" style="rounded=0;whiteSpace=wrap;html=1;fillColor=#0000FF;" vertex="1" parent="1">
          <mxGeometry x="190" y="330" width="10" height="10" as="geometry" />
        </mxCell>
        <mxCell id="IYdqFMrbhZFDWDfa6gce-176" value="" style="rounded=0;whiteSpace=wrap;html=1;fillColor=#0000FF;" vertex="1" parent="1">
          <mxGeometry x="200" y="330" width="10" height="10" as="geometry" />
        </mxCell>
        <mxCell id="IYdqFMrbhZFDWDfa6gce-177" value="" style="rounded=0;whiteSpace=wrap;html=1;fillColor=#0000FF;" vertex="1" parent="1">
          <mxGeometry x="210" y="330" width="10" height="10" as="geometry" />
        </mxCell>
        <mxCell id="IYdqFMrbhZFDWDfa6gce-178" value="" style="rounded=0;whiteSpace=wrap;html=1;fillColor=#0000FF;" vertex="1" parent="1">
          <mxGeometry x="220" y="330" width="10" height="10" as="geometry" />
        </mxCell>
        <mxCell id="IYdqFMrbhZFDWDfa6gce-179" value="" style="rounded=0;whiteSpace=wrap;html=1;fillColor=#0000FF;" vertex="1" parent="1">
          <mxGeometry x="230" y="330" width="10" height="10" as="geometry" />
        </mxCell>
        <mxCell id="IYdqFMrbhZFDWDfa6gce-181" value="Video DMA" style="rounded=1;whiteSpace=wrap;html=1;" vertex="1" parent="1">
          <mxGeometry x="280" y="150" width="100" height="60" as="geometry" />
        </mxCell>
        <mxCell id="IYdqFMrbhZFDWDfa6gce-184" value="" style="endArrow=classic;html=1;rounded=0;" edge="1" parent="1">
          <mxGeometry relative="1" as="geometry">
            <mxPoint x="380" y="180" as="sourcePoint" />
            <mxPoint x="460" y="180" as="targetPoint" />
          </mxGeometry>
        </mxCell>
        <mxCell id="IYdqFMrbhZFDWDfa6gce-185" value="AXI Stream" style="edgeLabel;resizable=0;html=1;;align=center;verticalAlign=middle;" connectable="0" vertex="1" parent="IYdqFMrbhZFDWDfa6gce-184">
          <mxGeometry relative="1" as="geometry" />
        </mxCell>
        <mxCell id="IYdqFMrbhZFDWDfa6gce-186" value="AXI-Stream to Video Out" style="rounded=1;whiteSpace=wrap;html=1;" vertex="1" parent="1">
          <mxGeometry x="460" y="150" width="100" height="60" as="geometry" />
        </mxCell>
        <mxCell id="IYdqFMrbhZFDWDfa6gce-189" value="RGB2DVI" style="rounded=1;whiteSpace=wrap;html=1;" vertex="1" parent="1">
          <mxGeometry x="460" y="280" width="100" height="60" as="geometry" />
        </mxCell>
        <mxCell id="IYdqFMrbhZFDWDfa6gce-190" value="" style="endArrow=classic;html=1;rounded=0;entryX=0.2;entryY=0;entryDx=0;entryDy=0;entryPerimeter=0;" edge="1" parent="1">
          <mxGeometry relative="1" as="geometry">
            <mxPoint x="490" y="210" as="sourcePoint" />
            <mxPoint x="490" y="280" as="targetPoint" />
          </mxGeometry>
        </mxCell>
        <mxCell id="IYdqFMrbhZFDWDfa6gce-191" value="R" style="edgeLabel;resizable=0;html=1;;align=center;verticalAlign=middle;" connectable="0" vertex="1" parent="IYdqFMrbhZFDWDfa6gce-190">
          <mxGeometry relative="1" as="geometry" />
        </mxCell>
        <mxCell id="IYdqFMrbhZFDWDfa6gce-192" value="" style="endArrow=classic;html=1;rounded=0;entryX=0.2;entryY=0;entryDx=0;entryDy=0;entryPerimeter=0;" edge="1" parent="1">
          <mxGeometry relative="1" as="geometry">
            <mxPoint x="509.8" y="210" as="sourcePoint" />
            <mxPoint x="509.8" y="280" as="targetPoint" />
          </mxGeometry>
        </mxCell>
        <mxCell id="IYdqFMrbhZFDWDfa6gce-193" value="G" style="edgeLabel;resizable=0;html=1;;align=center;verticalAlign=middle;" connectable="0" vertex="1" parent="IYdqFMrbhZFDWDfa6gce-192">
          <mxGeometry relative="1" as="geometry" />
        </mxCell>
        <mxCell id="IYdqFMrbhZFDWDfa6gce-195" value="" style="endArrow=classic;html=1;rounded=0;entryX=0.2;entryY=0;entryDx=0;entryDy=0;entryPerimeter=0;" edge="1" parent="1">
          <mxGeometry relative="1" as="geometry">
            <mxPoint x="530" y="210" as="sourcePoint" />
            <mxPoint x="530" y="280" as="targetPoint" />
          </mxGeometry>
        </mxCell>
        <mxCell id="IYdqFMrbhZFDWDfa6gce-196" value="B" style="edgeLabel;resizable=0;html=1;;align=center;verticalAlign=middle;" connectable="0" vertex="1" parent="IYdqFMrbhZFDWDfa6gce-195">
          <mxGeometry relative="1" as="geometry" />
        </mxCell>
        <mxCell id="IYdqFMrbhZFDWDfa6gce-198" value="DYNCLK" style="rounded=1;whiteSpace=wrap;html=1;" vertex="1" parent="1">
          <mxGeometry x="280" y="280" width="100" height="60" as="geometry" />
        </mxCell>
        <mxCell id="IYdqFMrbhZFDWDfa6gce-199" value="" style="endArrow=classic;html=1;rounded=0;" edge="1" parent="1">
          <mxGeometry relative="1" as="geometry">
            <mxPoint x="380" y="309.89" as="sourcePoint" />
            <mxPoint x="460" y="309.89" as="targetPoint" />
          </mxGeometry>
        </mxCell>
        <mxCell id="IYdqFMrbhZFDWDfa6gce-200" value="PixelCLK" style="edgeLabel;resizable=0;html=1;;align=center;verticalAlign=middle;" connectable="0" vertex="1" parent="IYdqFMrbhZFDWDfa6gce-199">
          <mxGeometry relative="1" as="geometry" />
        </mxCell>
        <mxCell id="IYdqFMrbhZFDWDfa6gce-201" value="" style="endArrow=classic;html=1;rounded=0;" edge="1" parent="1">
          <mxGeometry relative="1" as="geometry">
            <mxPoint x="560" y="309.93000000000006" as="sourcePoint" />
            <mxPoint x="640" y="309.93000000000006" as="targetPoint" />
          </mxGeometry>
        </mxCell>
        <mxCell id="IYdqFMrbhZFDWDfa6gce-202" value="TMDS" style="edgeLabel;resizable=0;html=1;;align=center;verticalAlign=middle;" connectable="0" vertex="1" parent="IYdqFMrbhZFDWDfa6gce-201">
          <mxGeometry relative="1" as="geometry" />
        </mxCell>
        <mxCell id="IYdqFMrbhZFDWDfa6gce-203" value="HDMI" style="rounded=0;whiteSpace=wrap;html=1;" vertex="1" parent="1">
          <mxGeometry x="640" y="280" width="40" height="60" as="geometry" />
        </mxCell>
        <mxCell id="IYdqFMrbhZFDWDfa6gce-205" value="Video Pipeline (Simplified)" style="rounded=1;whiteSpace=wrap;html=1;" vertex="1" parent="1">
          <mxGeometry x="60" y="130" width="150" height="30" as="geometry" />
        </mxCell>
        <mxCell id="IYdqFMrbhZFDWDfa6gce-206" value="" style="endArrow=classic;html=1;rounded=0;exitX=0.5;exitY=0;exitDx=0;exitDy=0;" edge="1" parent="1" source="IYdqFMrbhZFDWDfa6gce-2">
          <mxGeometry relative="1" as="geometry">
            <mxPoint x="130" y="200" as="sourcePoint" />
            <mxPoint x="280" y="180" as="targetPoint" />
            <Array as="points">
              <mxPoint x="160" y="180" />
            </Array>
          </mxGeometry>
        </mxCell>
        <mxCell id="IYdqFMrbhZFDWDfa6gce-207" value="AXI MM" style="edgeLabel;resizable=0;html=1;;align=center;verticalAlign=middle;" connectable="0" vertex="1" parent="IYdqFMrbhZFDWDfa6gce-206">
          <mxGeometry relative="1" as="geometry" />
        </mxCell>
      </root>
    </mxGraphModel>
  </diagram>
</mxfile>
